<?xml version="1.0" encoding="UTF-8"?>
<svg fill="#71717b" xmlns="http://www.w3.org/2000/svg" viewBox="0 0 459.43 163.44">
    <path d="M69.06,45.6c-.07,2.76-.32,4.94-.76,6.52-.44,1.58-1.3,3.66-2.58,6.22-5.6,11.39-15.5,17.09-29.73,17.09-10.99,0-19.74-3.56-26.24-10.67C3.25,57.66,0,48.57,0,37.52S3.37,17.44,10.11,10.47C16.85,3.49,25.58,0,36.3,0c8.43,0,15.77,2.46,22.04,7.38s9.71,11.49,10.31,19.72h-18.51c-1.62-7.55-6.37-11.33-14.26-11.33-5.12,0-9.22,2.01-12.29,6.02-3.07,4.01-4.6,9.39-4.6,16.13s1.53,11.76,4.6,15.67c3.07,3.91,7.16,5.87,12.29,5.87,8.29,0,13.11-4.62,14.46-13.85h18.71Z"/>
    <path d="M137.88,64.77c-6.37,7.11-14.88,10.67-25.53,10.67s-19.75-3.51-26.29-10.52c-6.54-7.01-9.81-16.08-9.81-27.2s3.32-19.85,9.96-27C92.85,3.57,101.49,0,112.14,0s19.28,3.42,25.68,10.26c6.4,6.84,9.61,16.03,9.61,27.56,0,10.85-3.19,19.84-9.56,26.95ZM123.87,21.13c-2.9-3.91-6.88-5.86-11.93-5.86s-9.07,2.01-12.03,6.02c-2.97,4.01-4.45,9.42-4.45,16.23s1.47,12.5,4.4,16.48c2.93,3.98,6.99,5.97,12.19,5.97s9.1-1.99,11.93-5.97c2.83-3.98,4.25-9.57,4.25-16.79,0-6.81-1.45-12.17-4.35-16.08Z"/>
    <path d="M157.75,1.72h27.3l13.15,49.95L211.65,1.72h26.59v72h-17.8l.91-54.91-16.08,54.91h-14.46l-15.98-54.81.61,54.81h-17.7V1.72Z"/>
    <path d="M251.29,1.72h31.65c8.83,0,15.77,1.92,20.83,5.76,5.06,3.84,7.58,10.01,7.58,18.5,0,7.82-2.29,13.72-6.88,17.7-4.58,3.98-10.75,5.97-18.5,5.97h-15.88v24.07h-18.81V1.72ZM280.72,35.09c1.96,0,3.54-.08,4.75-.25,1.21-.17,2.48-.52,3.79-1.06,1.31-.54,2.29-1.43,2.93-2.68.64-1.25.96-2.88.96-4.9,0-3.3-.94-5.65-2.83-7.03-1.89-1.38-4.58-2.07-8.09-2.07h-12.13v18h10.62Z"/>
    <path d="M320.36,1.72h37.52c7.15,0,12.99,1.77,17.54,5.31s6.83,8.71,6.83,15.52c0,8.36-3.71,14.22-11.12,17.59,4.79,1.62,7.82,4.72,9.1,9.3.88,2.97,1.62,8.06,2.22,15.27,0,.2.03.66.1,1.37.07.71.12,1.2.15,1.47.03.27.08.69.15,1.26.07.57.15,1.01.25,1.31.1.3.22.69.35,1.16.13.47.32.89.56,1.26.24.37.49.76.76,1.16h-19.11c-.54-1.28-.94-2.75-1.21-4.4s-.47-3.66-.61-6.02-.24-3.91-.3-4.65c-.47-4.31-1.65-7.35-3.54-9.1-1.89-1.75-4.99-2.63-9.3-2.63h-11.53v26.8h-18.81V1.72ZM352.42,33.57c3.57,0,6.35-.61,8.34-1.82,1.99-1.21,2.98-3.57,2.98-7.08,0-5.6-3.84-8.39-11.53-8.39h-13.04v17.29h13.25Z"/>
    <path d="M459.1,73.72h-19.42l-4.65-13.15h-24.88l-4.75,13.15h-19.21L413.19,1.62h19.01l26.9,72.1ZM422.7,21.84l-8.29,25.18h16.38l-8.09-25.18Z"/>
    <path d="M69.06,133.6c-.07,2.76-.32,4.94-.76,6.52-.44,1.58-1.3,3.66-2.58,6.22-5.6,11.39-15.5,17.09-29.73,17.09-10.99,0-19.74-3.56-26.24-10.67-6.5-7.11-9.76-16.2-9.76-27.25s3.37-20.07,10.11-27.05c6.74-6.98,15.47-10.47,26.19-10.47,8.43,0,15.77,2.46,22.04,7.38s9.71,11.49,10.31,19.72h-18.51c-1.62-7.55-6.37-11.33-14.26-11.33-5.12,0-9.22,2.01-12.29,6.02-3.07,4.01-4.6,9.39-4.6,16.13s1.53,11.76,4.6,15.67c3.07,3.91,7.16,5.87,12.29,5.87,8.29,0,13.11-4.62,14.46-13.85h18.71Z"/>
    <path d="M136.62,104.89h-38.93v12.44h35.59v14.56h-35.59v14.06h39.84v15.77h-58.55v-72h57.64v15.17Z"/>
    <path d="M148.05,89.72h37.52c7.15,0,12.99,1.77,17.54,5.31s6.83,8.71,6.83,15.52c0,8.36-3.71,14.22-11.12,17.59,4.79,1.62,7.82,4.72,9.1,9.3.88,2.97,1.62,8.06,2.22,15.27,0,.2.03.66.1,1.37.07.71.12,1.2.15,1.47.03.27.08.69.15,1.26.07.57.15,1.01.25,1.31.1.3.22.69.35,1.16.13.47.32.89.56,1.26s.49.76.76,1.16h-19.11c-.54-1.28-.94-2.75-1.21-4.4s-.47-3.66-.61-6.02c-.14-2.36-.24-3.91-.3-4.65-.47-4.31-1.65-7.35-3.54-9.1-1.89-1.75-4.99-2.63-9.3-2.63h-11.53v26.8h-18.81v-72ZM180.1,121.57c3.57,0,6.35-.61,8.34-1.82,1.99-1.21,2.98-3.57,2.98-7.08,0-5.6-3.84-8.39-11.53-8.39h-13.04v17.29h13.25Z"/>
    <path d="M276.57,105.7h-21.34v56.02h-19.01v-56.02h-21.34v-15.98h61.68v15.98Z"/>
    <path d="M341.19,161.72h-19.42l-4.65-13.15h-24.88l-4.75,13.15h-19.21l27-72.1h19.01l26.9,72.1ZM304.79,109.84l-8.29,25.18h16.38l-8.09-25.18Z"/>
    <polygon points="459.43 89.62 459.43 161.72 361.19 161.72 334.29 89.62 459.43 89.62"/>
</svg>